# xmcd
#
# Track frame offsets: 
#        292
#        16980
#        30204
#        46405
#        66137
#        84058
#        96606
#        112086
#        130618
#        143327
#        158936
#        175749
#        177878
#
# Disc length: 2661 seconds
#
# Revision: 0
# Processed by: cddbd v1.5.1PL2 Copyright (c) Steve Scherf et al.
# Submitted via: ExactAudioCopy v0.95b2
#
DISCID=9b0a620d
DTITLE=Kierra Kiki Sheard - This Is Me
DYEAR=2006
DGENRE=R&B
TTITLE0=You're The Only One
TTITLE1=Yes
TTITLE2=It Is What It Is
TTITLE3=This Is Me
TTITLE4=Wrong Things
TTITLE5=Faith
TTITLE6=Why Me?
TTITLE7=Have What You Want
TTITLE8=You
TTITLE9=Change
TTITLE10=No, Never
TTITLE11=Here This - Intro
TTITLE12=Hear This
EXTD=
EXTT0=
EXTT1=
EXTT2=
EXTT3=
EXTT4=
EXTT5=
EXTT6=
EXTT7=
EXTT8=
EXTT9=
EXTT10=
EXTT11=
EXTT12=
PLAYORDER=
